{"title":"Automata.2014.WEBRiP.XViD.AC3.5.1.ReLeNTLesS","uid":11200648,"size":1493018485,"categoryP":"video","categoryS":"movies","magnet":"?xt=urn:btih:5278f6dff615bf4f824e8d4e650b7019c36794b4&amp;dn=Automata.2014.WEBRiP.XViD.AC3.5.1.ReLeNTLesS&amp;tr=udp%3A%2F%2Ftracker.openbittorrent.com%3A80&amp;tr=udp%3A%2F%2Fopen.demonii.com%3A1337&amp;tr=udp%3A%2F%2Ftracker.coppersurfer.tk%3A6969&amp;tr=udp%3A%2F%2Fexodus.desync.com%3A6969","seeders":2,"leechers":4,"uploader":"TvTeam","files":4,"time":1413165486,"description":" &lt;a href=&quot;http://www.torrenting.com&quot; rel=&quot;nofollow&quot; target=&quot;_NEW&quot;&gt;http://www.torrenting.com&lt;/a&gt;\n\nSign up is OPEN - for time being. Come and have fun.\n\n\n....P0STER\n[IMG]http://lookpic.com/O/i2/847/wvnIrlIv.jpeg[/IMG]\n\niMDB: http://www.imdb.com/title/tt1971325/\n\nGeneral\nComplete name                            : Automata.2014.WEBRiP.XViD.AC3.5.1.ReLeNTLesS.avi\nFormat                                   : AVI\nFormat/Info                              : Audio Video Interleave\nFile size                                : 1.37 GiB\nDuration                                 : 1h 49mn\nOverall bit rate                         : 1 791 Kbps\n\nVideo\nID                                       : 0\nFormat                                   : MPEG-4 Visual\nFormat profile                           : Advanced Simple@L5\nFormat settings, BVOP                    : 2\nFormat settings, QPel                    : No\nFormat settings, GMC                     : No warppoints\nFormat settings, Matrix                  : Default (H.263)\nCodec ID                                 : XVID\nCodec ID/Hint                            : XviD\nDuration                                 : 1h 49mn\nBit rate                                 : 1 399 Kbps\nWidth                                    : 720 pixels\nHeight                                   : 304 pixels\nDisplay aspect ratio                     : 2.35:1\nFrame rate                               : 23.976 fps\nColor space                              : YUV\nChroma subsampling                       : 4:2:0\nBit depth                                : 8 bits\nScan type                                : Progressive\nCompression mode                         : Lossy\nBits/(Pixel*Frame)                       : 0.267\nStream size                              : 1.07 GiB (78%)\nWriting library                          : XviD 1.2.1 (UTC 2008-12-04)\n\nAudio\nID                                       : 1\nFormat                                   : AC-3\nFormat/Info                              : Audio Coding 3\nMode extension                           : CM (complete main)\nFormat settings, Endianness              : Big\nCodec ID                                 : 2000\nDuration                                 : 1h 49mn\nBit rate mode                            : Constant\nBit rate                                 : 384 Kbps\nChannel(s)                               : 6 channels\nChannel positions                        : Front: L C R, Side: L R, LFE\nSampling rate                            : 48.0 KHz\nBit depth                                : 16 bits\nCompression mode                         : Lossy\nStream size                              : 302 MiB (21%)\nAlignment                                : Aligned on interleaves\nInterleave, duration                     : 64 ms (1.53 video frames)\nInterleave, preload duration             : 192 ms\nTitle                                    : Automata.2014.audio.English.5.1\nSource                                   : PLAYNOW Thanks \n\nPL0T\nJacq Vaucan, an insurance agent of ROC robotics corporation, routinely investigates the case of manipulating a robot. What he discovers will have profound consequences for the future of humanity.\n\nCAST\nDirector: Gabe Ibez\nWriters:  Gabe Ibez, Igor Legarreta\nStars:  Antonio Banderas, Birgitte Hjort Srensen, Dylan McDermott\n\nSCREENS\n[IMG]http://lookpic.com/O/i2/310/8rmAUk08.png[/IMG]\n[IMG]http://lookpic.com/O/i2/1985/zpvsEVET.png[/IMG]\n[IMG]http://lookpic.com/O/i2/1598/JoGD6vIi.png[/IMG]\n[IMG]http://lookpic.com/O/i2/943/lNAg70GY.png[/IMG]\n[IMG]http://lookpic.com/O/i2/1400/r4ckUkJV.png[/IMG]\n[IMG]http://lookpic.com/O/i2/124/GjoXMjIh.png[/IMG]\n\nTRAiLER\n\nGREETZ\n\nM0RPH, M00SE, MiLLENiUM, Anonymous, TuX,\n\nACAB, KingStoner, FooKas, 4PlayHD,\n\nGodFather, Cld....\n\nKeep up the good work guyz.","torrent":{"xt":"urn:btih:5278f6dff615bf4f824e8d4e650b7019c36794b4","amp;dn":"Automata.2014.WEBRiP.XViD.AC3.5.1.ReLeNTLesS","amp;tr":["udp%3A%2F%2Ftracker.openbittorrent.com%3A80","udp%3A%2F%2Fopen.demonii.com%3A1337","udp%3A%2F%2Ftracker.coppersurfer.tk%3A6969","udp%3A%2F%2Fexodus.desync.com%3A6969"],"infoHash":"5278f6dff615bf4f824e8d4e650b7019c36794b4","infoHashBuffer":{"type":"Buffer","data":[82,120,246,223,246,21,191,79,130,78,141,78,101,11,112,25,195,103,148,180]},"announce":[],"urlList":[]}}